<svg width="1697" height="1415" viewBox="0 0 1697 1415" fill="none" xmlns="http://www.w3.org/2000/svg">
<defs>
<radialGradient id="fade" cx="1" cy="1" r="1.05" gradientUnits="objectBoundingBox">
<stop offset="0" stop-color="#fff" stop-opacity="0.5"/>
<stop offset="0.45" stop-color="#fff" stop-opacity="0.22"/>
<stop offset="0.85" stop-color="#fff" stop-opacity="0"/>
</radialGradient>
<mask id="m"><rect width="1697" height="1415" fill="url(#fade)"/></mask>
</defs>
<g mask="url(#m)" stroke="#f3ead8" stroke-width="1.4" stroke-linecap="round">
<path d="M1697 1415L1579 1415 M1579 1415L1638 1312.8 M1638 1312.8L1697 1415 M1697 1415L1638 1380.9 M1579 1415L1638 1380.9 M1638 1312.8L1638 1380.9 M1579 1415L1461 1415 M1461 1415L1520 1312.8 M1520 1312.8L1579 1415 M1461 1415L1343 1415 M1343 1415L1402 1312.8 M1402 1312.8L1461 1415 M1343 1415L1225 1415 M1225 1415L1284 1312.8 M1284 1312.8L1343 1415 M1343 1415L1284 1380.9 M1225 1415L1284 1380.9 M1284 1312.8L1284 1380.9 M1225 1415L1107 1415 M1107 1415L1166 1312.8 M1166 1312.8L1225 1415 M1107 1415L989 1415 M989 1415L1048 1312.8 M1048 1312.8L1107 1415 M989 1415L871 1415 M871 1415L930 1312.8 M930 1312.8L989 1415 M989 1415L930 1380.9 M871 1415L930 1380.9 M930 1312.8L930 1380.9 M871 1415L753 1415 M753 1415L812 1312.8 M812 1312.8L871 1415 M753 1415L635 1415 M635 1415L694 1312.8 M694 1312.8L753 1415 M635 1415L517 1415 M517 1415L576 1312.8 M576 1312.8L635 1415 M635 1415L576 1380.9 M517 1415L576 1380.9 M576 1312.8L576 1380.9 M517 1415L399 1415 M399 1415L458 1312.8 M458 1312.8L517 1415 M399 1415L281 1415 M281 1415L340 1312.8 M340 1312.8L399 1415 M281 1415L163 1415 M163 1415L222 1312.8 M222 1312.8L281 1415 M281 1415L222 1380.9 M163 1415L222 1380.9 M222 1312.8L222 1380.9 M163 1415L45 1415 M45 1415L104 1312.8 M104 1312.8L163 1415 M45 1415L-73 1415 M-73 1415L-14 1312.8 M-14 1312.8L45 1415 M-73 1415L-191 1415 M-191 1415L-132 1312.8 M-132 1312.8L-73 1415 M-73 1415L-132 1380.9 M-191 1415L-132 1380.9 M-132 1312.8L-132 1380.9 M-191 1415L-309 1415 M-309 1415L-250 1312.8 M-250 1312.8L-191 1415 M1638 1312.8L1520 1312.8 M1520 1312.8L1579 1210.6 M1579 1210.6L1638 1312.8 M1520 1312.8L1402 1312.8 M1402 1312.8L1461 1210.6 M1461 1210.6L1520 1312.8 M1402 1312.8L1284 1312.8 M1284 1312.8L1343 1210.6 M1343 1210.6L1402 1312.8 M1402 1312.8L1343 1278.7 M1284 1312.8L1343 1278.7 M1343 1210.6L1343 1278.7 M1284 1312.8L1166 1312.8 M1166 1312.8L1225 1210.6 M1225 1210.6L1284 1312.8 M1166 1312.8L1048 1312.8 M1048 1312.8L1107 1210.6 M1107 1210.6L1166 1312.8 M1048 1312.8L930 1312.8 M930 1312.8L989 1210.6 M989 1210.6L1048 1312.8 M1048 1312.8L989 1278.7 M930 1312.8L989 1278.7 M989 1210.6L989 1278.7 M930 1312.8L812 1312.8 M812 1312.8L871 1210.6 M871 1210.6L930 1312.8 M812 1312.8L694 1312.8 M694 1312.8L753 1210.6 M753 1210.6L812 1312.8 M694 1312.8L576 1312.8 M576 1312.8L635 1210.6 M635 1210.6L694 1312.8 M694 1312.8L635 1278.7 M576 1312.8L635 1278.7 M635 1210.6L635 1278.7 M576 1312.8L458 1312.8 M458 1312.8L517 1210.6 M517 1210.6L576 1312.8 M458 1312.8L340 1312.8 M340 1312.8L399 1210.6 M399 1210.6L458 1312.8 M340 1312.8L222 1312.8 M222 1312.8L281 1210.6 M281 1210.6L340 1312.8 M340 1312.8L281 1278.7 M222 1312.8L281 1278.7 M281 1210.6L281 1278.7 M222 1312.8L104 1312.8 M104 1312.8L163 1210.6 M163 1210.6L222 1312.8 M104 1312.8L-14 1312.8 M-14 1312.8L45 1210.6 M45 1210.6L104 1312.8 M-14 1312.8L-132 1312.8 M-132 1312.8L-73 1210.6 M-73 1210.6L-14 1312.8 M-14 1312.8L-73 1278.7 M-132 1312.8L-73 1278.7 M-73 1210.6L-73 1278.7 M-132 1312.8L-250 1312.8 M-250 1312.8L-191 1210.6 M-191 1210.6L-132 1312.8 M-250 1312.8L-368 1312.8 M-368 1312.8L-309 1210.6 M-309 1210.6L-250 1312.8 M1697 1210.6L1579 1210.6 M1579 1210.6L1638 1108.4 M1638 1108.4L1697 1210.6 M1579 1210.6L1461 1210.6 M1461 1210.6L1520 1108.4 M1520 1108.4L1579 1210.6 M1579 1210.6L1520 1176.6 M1461 1210.6L1520 1176.6 M1520 1108.4L1520 1176.6 M1461 1210.6L1343 1210.6 M1343 1210.6L1402 1108.4 M1402 1108.4L1461 1210.6 M1343 1210.6L1225 1210.6 M1225 1210.6L1284 1108.4 M1284 1108.4L1343 1210.6 M1225 1210.6L1107 1210.6 M1107 1210.6L1166 1108.4 M1166 1108.4L1225 1210.6 M1225 1210.6L1166 1176.6 M1107 1210.6L1166 1176.6 M1166 1108.4L1166 1176.6 M1107 1210.6L989 1210.6 M989 1210.6L1048 1108.4 M1048 1108.4L1107 1210.6 M989 1210.6L871 1210.6 M871 1210.6L930 1108.4 M930 1108.4L989 1210.6 M871 1210.6L753 1210.6 M753 1210.6L812 1108.4 M812 1108.4L871 1210.6 M871 1210.6L812 1176.6 M753 1210.6L812 1176.6 M812 1108.4L812 1176.6 M753 1210.6L635 1210.6 M635 1210.6L694 1108.4 M694 1108.4L753 1210.6 M635 1210.6L517 1210.6 M517 1210.6L576 1108.4 M576 1108.4L635 1210.6 M517 1210.6L399 1210.6 M399 1210.6L458 1108.4 M458 1108.4L517 1210.6 M517 1210.6L458 1176.6 M399 1210.6L458 1176.6 M458 1108.4L458 1176.6 M399 1210.6L281 1210.6 M281 1210.6L340 1108.4 M340 1108.4L399 1210.6 M281 1210.6L163 1210.6 M163 1210.6L222 1108.4 M222 1108.4L281 1210.6 M163 1210.6L45 1210.6 M45 1210.6L104 1108.4 M104 1108.4L163 1210.6 M163 1210.6L104 1176.6 M45 1210.6L104 1176.6 M104 1108.4L104 1176.6 M45 1210.6L-73 1210.6 M-73 1210.6L-14 1108.4 M-14 1108.4L45 1210.6 M-73 1210.6L-191 1210.6 M-191 1210.6L-132 1108.4 M-132 1108.4L-73 1210.6 M-191 1210.6L-309 1210.6 M-309 1210.6L-250 1108.4 M-250 1108.4L-191 1210.6 M-191 1210.6L-250 1176.6 M-309 1210.6L-250 1176.6 M-250 1108.4L-250 1176.6 M1638 1108.4L1520 1108.4 M1520 1108.4L1579 1006.2 M1579 1006.2L1638 1108.4 M1638 1108.4L1579 1074.4 M1520 1108.4L1579 1074.4 M1579 1006.2L1579 1074.4 M1520 1108.4L1402 1108.4 M1402 1108.4L1461 1006.2 M1461 1006.2L1520 1108.4 M1402 1108.4L1284 1108.4 M1284 1108.4L1343 1006.2 M1343 1006.2L1402 1108.4 M1284 1108.4L1166 1108.4 M1166 1108.4L1225 1006.2 M1225 1006.2L1284 1108.4 M1284 1108.4L1225 1074.4 M1166 1108.4L1225 1074.4 M1225 1006.2L1225 1074.4 M1166 1108.4L1048 1108.4 M1048 1108.4L1107 1006.2 M1107 1006.2L1166 1108.4 M1048 1108.4L930 1108.4 M930 1108.4L989 1006.2 M989 1006.2L1048 1108.4 M930 1108.4L812 1108.4 M812 1108.4L871 1006.2 M871 1006.2L930 1108.4 M930 1108.4L871 1074.4 M812 1108.4L871 1074.4 M871 1006.2L871 1074.4 M812 1108.4L694 1108.4 M694 1108.4L753 1006.2 M753 1006.2L812 1108.4 M694 1108.4L576 1108.4 M576 1108.4L635 1006.2 M635 1006.2L694 1108.4 M576 1108.4L458 1108.4 M458 1108.4L517 1006.2 M517 1006.2L576 1108.4 M576 1108.4L517 1074.4 M458 1108.4L517 1074.4 M517 1006.2L517 1074.4 M458 1108.4L340 1108.4 M340 1108.4L399 1006.2 M399 1006.2L458 1108.4 M340 1108.4L222 1108.4 M222 1108.4L281 1006.2 M281 1006.2L340 1108.4 M222 1108.4L104 1108.4 M104 1108.4L163 1006.2 M163 1006.2L222 1108.4 M222 1108.4L163 1074.4 M104 1108.4L163 1074.4 M163 1006.2L163 1074.4 M104 1108.4L-14 1108.4 M-14 1108.4L45 1006.2 M45 1006.2L104 1108.4 M-14 1108.4L-132 1108.4 M-132 1108.4L-73 1006.2 M-73 1006.2L-14 1108.4 M-132 1108.4L-250 1108.4 M-250 1108.4L-191 1006.2 M-191 1006.2L-132 1108.4 M-132 1108.4L-191 1074.4 M-250 1108.4L-191 1074.4 M-191 1006.2L-191 1074.4 M-250 1108.4L-368 1108.4 M-368 1108.4L-309 1006.2 M-309 1006.2L-250 1108.4 M1697 1006.2L1579 1006.2 M1579 1006.2L1638 904 M1638 904L1697 1006.2 M1579 1006.2L1461 1006.2 M1461 1006.2L1520 904 M1520 904L1579 1006.2 M1461 1006.2L1343 1006.2 M1343 1006.2L1402 904 M1402 904L1461 1006.2 M1461 1006.2L1402 972.2 M1343 1006.2L1402 972.2 M1402 904L1402 972.2 M1343 1006.2L1225 1006.2 M1225 1006.2L1284 904 M1284 904L1343 1006.2 M1225 1006.2L1107 1006.2 M1107 1006.2L1166 904 M1166 904L1225 1006.2 M1107 1006.2L989 1006.2 M989 1006.2L1048 904 M1048 904L1107 1006.2 M1107 1006.2L1048 972.2 M989 1006.2L1048 972.2 M1048 904L1048 972.2 M989 1006.2L871 1006.2 M871 1006.2L930 904 M930 904L989 1006.2 M871 1006.2L753 1006.2 M753 1006.2L812 904 M812 904L871 1006.2 M753 1006.2L635 1006.2 M635 1006.2L694 904 M694 904L753 1006.2 M753 1006.2L694 972.2 M635 1006.2L694 972.2 M694 904L694 972.2 M635 1006.2L517 1006.2 M517 1006.2L576 904 M576 904L635 1006.2 M517 1006.2L399 1006.2 M399 1006.2L458 904 M458 904L517 1006.2 M399 1006.2L281 1006.2 M281 1006.2L340 904 M340 904L399 1006.2 M399 1006.2L340 972.2 M281 1006.2L340 972.2 M340 904L340 972.2 M281 1006.2L163 1006.2 M163 1006.2L222 904 M222 904L281 1006.2 M163 1006.2L45 1006.2 M45 1006.2L104 904 M104 904L163 1006.2 M45 1006.2L-73 1006.2 M-73 1006.2L-14 904 M-14 904L45 1006.2 M45 1006.2L-14 972.2 M-73 1006.2L-14 972.2 M-14 904L-14 972.2 M-73 1006.2L-191 1006.2 M-191 1006.2L-132 904 M-132 904L-73 1006.2 M-191 1006.2L-309 1006.2 M-309 1006.2L-250 904 M-250 904L-191 1006.2 M1638 904L1520 904 M1520 904L1579 801.9 M1579 801.9L1638 904 M1520 904L1402 904 M1402 904L1461 801.9 M1461 801.9L1520 904 M1520 904L1461 870 M1402 904L1461 870 M1461 801.9L1461 870 M1402 904L1284 904 M1284 904L1343 801.9 M1343 801.9L1402 904 M1284 904L1166 904 M1166 904L1225 801.9 M1225 801.9L1284 904 M1166 904L1048 904 M1048 904L1107 801.9 M1107 801.9L1166 904 M1166 904L1107 870 M1048 904L1107 870 M1107 801.9L1107 870 M1048 904L930 904 M930 904L989 801.9 M989 801.9L1048 904 M930 904L812 904 M812 904L871 801.9 M871 801.9L930 904 M812 904L694 904 M694 904L753 801.9 M753 801.9L812 904 M812 904L753 870 M694 904L753 870 M753 801.9L753 870 M694 904L576 904 M576 904L635 801.9 M635 801.9L694 904 M576 904L458 904 M458 904L517 801.9 M517 801.9L576 904 M458 904L340 904 M340 904L399 801.9 M399 801.9L458 904 M458 904L399 870 M340 904L399 870 M399 801.9L399 870 M340 904L222 904 M222 904L281 801.9 M281 801.9L340 904 M222 904L104 904 M104 904L163 801.9 M163 801.9L222 904 M104 904L-14 904 M-14 904L45 801.9 M45 801.9L104 904 M104 904L45 870 M-14 904L45 870 M45 801.9L45 870 M-14 904L-132 904 M-132 904L-73 801.9 M-73 801.9L-14 904 M-132 904L-250 904 M-250 904L-191 801.9 M-191 801.9L-132 904 M-250 904L-368 904 M-368 904L-309 801.9 M-309 801.9L-250 904 M-250 904L-309 870 M-368 904L-309 870 M-309 801.9L-309 870 M1697 801.9L1579 801.9 M1579 801.9L1638 699.7 M1638 699.7L1697 801.9 M1697 801.9L1638 767.8 M1579 801.9L1638 767.8 M1638 699.7L1638 767.8 M1579 801.9L1461 801.9 M1461 801.9L1520 699.7 M1520 699.7L1579 801.9 M1461 801.9L1343 801.9 M1343 801.9L1402 699.7 M1402 699.7L1461 801.9 M1343 801.9L1225 801.9 M1225 801.9L1284 699.7 M1284 699.7L1343 801.9 M1343 801.9L1284 767.8 M1225 801.9L1284 767.8 M1284 699.7L1284 767.8 M1225 801.9L1107 801.9 M1107 801.9L1166 699.7 M1166 699.7L1225 801.9 M1107 801.9L989 801.9 M989 801.9L1048 699.7 M1048 699.7L1107 801.9 M989 801.9L871 801.9 M871 801.9L930 699.7 M930 699.7L989 801.9 M989 801.9L930 767.8 M871 801.9L930 767.8 M930 699.7L930 767.8 M871 801.9L753 801.9 M753 801.9L812 699.7 M812 699.7L871 801.9 M753 801.9L635 801.9 M635 801.9L694 699.7 M694 699.7L753 801.9 M635 801.9L517 801.9 M517 801.9L576 699.7 M576 699.7L635 801.9 M635 801.9L576 767.8 M517 801.9L576 767.8 M576 699.7L576 767.8 M517 801.9L399 801.9 M399 801.9L458 699.7 M458 699.7L517 801.9 M399 801.9L281 801.9 M281 801.9L340 699.7 M340 699.7L399 801.9 M281 801.9L163 801.9 M163 801.9L222 699.7 M222 699.7L281 801.9 M281 801.9L222 767.8 M163 801.9L222 767.8 M222 699.7L222 767.8 M163 801.9L45 801.9 M45 801.9L104 699.7 M104 699.7L163 801.9 M45 801.9L-73 801.9 M-73 801.9L-14 699.7 M-14 699.7L45 801.9 M-73 801.9L-191 801.9 M-191 801.9L-132 699.7 M-132 699.7L-73 801.9 M-73 801.9L-132 767.8 M-191 801.9L-132 767.8 M-132 699.7L-132 767.8 M-191 801.9L-309 801.9 M-309 801.9L-250 699.7 M-250 699.7L-191 801.9 M1638 699.7L1520 699.7 M1520 699.7L1579 597.5 M1579 597.5L1638 699.7 M1520 699.7L1402 699.7 M1402 699.7L1461 597.5 M1461 597.5L1520 699.7 M1402 699.7L1284 699.7 M1284 699.7L1343 597.5 M1343 597.5L1402 699.7 M1402 699.7L1343 665.6 M1284 699.7L1343 665.6 M1343 597.5L1343 665.6 M1284 699.7L1166 699.7 M1166 699.7L1225 597.5 M1225 597.5L1284 699.7 M1166 699.7L1048 699.7 M1048 699.7L1107 597.5 M1107 597.5L1166 699.7 M1048 699.7L930 699.7 M930 699.7L989 597.5 M989 597.5L1048 699.7 M1048 699.7L989 665.6 M930 699.7L989 665.6 M989 597.5L989 665.6 M930 699.7L812 699.7 M812 699.7L871 597.5 M871 597.5L930 699.7 M812 699.7L694 699.7 M694 699.7L753 597.5 M753 597.5L812 699.7 M694 699.7L576 699.7 M576 699.7L635 597.5 M635 597.5L694 699.7 M694 699.7L635 665.6 M576 699.7L635 665.6 M635 597.5L635 665.6 M576 699.7L458 699.7 M458 699.7L517 597.5 M517 597.5L576 699.7 M458 699.7L340 699.7 M340 699.7L399 597.5 M399 597.5L458 699.7 M340 699.7L222 699.7 M222 699.7L281 597.5 M281 597.5L340 699.7 M340 699.7L281 665.6 M222 699.7L281 665.6 M281 597.5L281 665.6 M222 699.7L104 699.7 M104 699.7L163 597.5 M163 597.5L222 699.7 M104 699.7L-14 699.7 M-14 699.7L45 597.5 M45 597.5L104 699.7 M-14 699.7L-132 699.7 M-132 699.7L-73 597.5 M-73 597.5L-14 699.7 M-14 699.7L-73 665.6 M-132 699.7L-73 665.6 M-73 597.5L-73 665.6 M-132 699.7L-250 699.7 M-250 699.7L-191 597.5 M-191 597.5L-132 699.7 M-250 699.7L-368 699.7 M-368 699.7L-309 597.5 M-309 597.5L-250 699.7 M1697 597.5L1579 597.5 M1579 597.5L1638 495.3 M1638 495.3L1697 597.5 M1579 597.5L1461 597.5 M1461 597.5L1520 495.3 M1520 495.3L1579 597.5 M1579 597.5L1520 563.4 M1461 597.5L1520 563.4 M1520 495.3L1520 563.4 M1461 597.5L1343 597.5 M1343 597.5L1402 495.3 M1402 495.3L1461 597.5 M1343 597.5L1225 597.5 M1225 597.5L1284 495.3 M1284 495.3L1343 597.5 M1225 597.5L1107 597.5 M1107 597.5L1166 495.3 M1166 495.3L1225 597.5 M1225 597.5L1166 563.4 M1107 597.5L1166 563.4 M1166 495.3L1166 563.4 M1107 597.5L989 597.5 M989 597.5L1048 495.3 M1048 495.3L1107 597.5 M989 597.5L871 597.5 M871 597.5L930 495.3 M930 495.3L989 597.5 M871 597.5L753 597.5 M753 597.5L812 495.3 M812 495.3L871 597.5 M871 597.5L812 563.4 M753 597.5L812 563.4 M812 495.3L812 563.4 M753 597.5L635 597.5 M635 597.5L694 495.3 M694 495.3L753 597.5 M635 597.5L517 597.5 M517 597.5L576 495.3 M576 495.3L635 597.5 M517 597.5L399 597.5 M399 597.5L458 495.3 M458 495.3L517 597.5 M517 597.5L458 563.4 M399 597.5L458 563.4 M458 495.3L458 563.4 M399 597.5L281 597.5 M281 597.5L340 495.3 M340 495.3L399 597.5 M281 597.5L163 597.5 M163 597.5L222 495.3 M222 495.3L281 597.5 M163 597.5L45 597.5 M45 597.5L104 495.3 M104 495.3L163 597.5 M163 597.5L104 563.4 M45 597.5L104 563.4 M104 495.3L104 563.4 M45 597.5L-73 597.5 M-73 597.5L-14 495.3 M-14 495.3L45 597.5 M-73 597.5L-191 597.5 M-191 597.5L-132 495.3 M-132 495.3L-73 597.5 M-191 597.5L-309 597.5 M-309 597.5L-250 495.3 M-250 495.3L-191 597.5 M-191 597.5L-250 563.4 M-309 597.5L-250 563.4 M-250 495.3L-250 563.4 M1638 495.3L1520 495.3 M1520 495.3L1579 393.1 M1579 393.1L1638 495.3 M1638 495.3L1579 461.2 M1520 495.3L1579 461.2 M1579 393.1L1579 461.2 M1520 495.3L1402 495.3 M1402 495.3L1461 393.1 M1461 393.1L1520 495.3 M1402 495.3L1284 495.3 M1284 495.3L1343 393.1 M1343 393.1L1402 495.3 M1284 495.3L1166 495.3 M1166 495.3L1225 393.1 M1225 393.1L1284 495.3 M1284 495.3L1225 461.2 M1166 495.3L1225 461.2 M1225 393.1L1225 461.2 M1166 495.3L1048 495.3 M1048 495.3L1107 393.1 M1107 393.1L1166 495.3 M1048 495.3L930 495.3 M930 495.3L989 393.1 M989 393.1L1048 495.3 M930 495.3L812 495.3 M812 495.3L871 393.1 M871 393.1L930 495.3 M930 495.3L871 461.2 M812 495.3L871 461.2 M871 393.1L871 461.2 M812 495.3L694 495.3 M694 495.3L753 393.1 M753 393.1L812 495.3 M694 495.3L576 495.3 M576 495.3L635 393.1 M635 393.1L694 495.3 M576 495.3L458 495.3 M458 495.3L517 393.1 M517 393.1L576 495.3 M576 495.3L517 461.2 M458 495.3L517 461.2 M517 393.1L517 461.2 M458 495.3L340 495.3 M340 495.3L399 393.1 M399 393.1L458 495.3 M340 495.3L222 495.3 M222 495.3L281 393.1 M281 393.1L340 495.3 M222 495.3L104 495.3 M104 495.3L163 393.1 M163 393.1L222 495.3 M222 495.3L163 461.2 M104 495.3L163 461.2 M163 393.1L163 461.2 M104 495.3L-14 495.3 M-14 495.3L45 393.1 M45 393.1L104 495.3 M-14 495.3L-132 495.3 M-132 495.3L-73 393.1 M-73 393.1L-14 495.3 M-132 495.3L-250 495.3 M-250 495.3L-191 393.1 M-191 393.1L-132 495.3 M-132 495.3L-191 461.2 M-250 495.3L-191 461.2 M-191 393.1L-191 461.2 M-250 495.3L-368 495.3 M-368 495.3L-309 393.1 M-309 393.1L-250 495.3 M1697 393.1L1579 393.1 M1579 393.1L1638 290.9 M1638 290.9L1697 393.1 M1579 393.1L1461 393.1 M1461 393.1L1520 290.9 M1520 290.9L1579 393.1 M1461 393.1L1343 393.1 M1343 393.1L1402 290.9 M1402 290.9L1461 393.1 M1461 393.1L1402 359 M1343 393.1L1402 359 M1402 290.9L1402 359 M1343 393.1L1225 393.1 M1225 393.1L1284 290.9 M1284 290.9L1343 393.1 M1225 393.1L1107 393.1 M1107 393.1L1166 290.9 M1166 290.9L1225 393.1 M1107 393.1L989 393.1 M989 393.1L1048 290.9 M1048 290.9L1107 393.1 M1107 393.1L1048 359 M989 393.1L1048 359 M1048 290.9L1048 359 M989 393.1L871 393.1 M871 393.1L930 290.9 M930 290.9L989 393.1 M871 393.1L753 393.1 M753 393.1L812 290.9 M812 290.9L871 393.1 M753 393.1L635 393.1 M635 393.1L694 290.9 M694 290.9L753 393.1 M753 393.1L694 359 M635 393.1L694 359 M694 290.9L694 359 M635 393.1L517 393.1 M517 393.1L576 290.9 M576 290.9L635 393.1 M517 393.1L399 393.1 M399 393.1L458 290.9 M458 290.9L517 393.1 M399 393.1L281 393.1 M281 393.1L340 290.9 M340 290.9L399 393.1 M399 393.1L340 359 M281 393.1L340 359 M340 290.9L340 359 M281 393.1L163 393.1 M163 393.1L222 290.9 M222 290.9L281 393.1 M163 393.1L45 393.1 M45 393.1L104 290.9 M104 290.9L163 393.1 M45 393.1L-73 393.1 M-73 393.1L-14 290.9 M-14 290.9L45 393.1 M45 393.1L-14 359 M-73 393.1L-14 359 M-14 290.9L-14 359 M-73 393.1L-191 393.1 M-191 393.1L-132 290.9 M-132 290.9L-73 393.1 M-191 393.1L-309 393.1 M-309 393.1L-250 290.9 M-250 290.9L-191 393.1 M1638 290.9L1520 290.9 M1520 290.9L1579 188.7 M1579 188.7L1638 290.9 M1520 290.9L1402 290.9 M1402 290.9L1461 188.7 M1461 188.7L1520 290.9 M1520 290.9L1461 256.8 M1402 290.9L1461 256.8 M1461 188.7L1461 256.8 M1402 290.9L1284 290.9 M1284 290.9L1343 188.7 M1343 188.7L1402 290.9 M1284 290.9L1166 290.9 M1166 290.9L1225 188.7 M1225 188.7L1284 290.9 M1166 290.9L1048 290.9 M1048 290.9L1107 188.7 M1107 188.7L1166 290.9 M1166 290.9L1107 256.8 M1048 290.9L1107 256.8 M1107 188.7L1107 256.8 M1048 290.9L930 290.9 M930 290.9L989 188.7 M989 188.7L1048 290.9 M930 290.9L812 290.9 M812 290.9L871 188.7 M871 188.7L930 290.9 M812 290.9L694 290.9 M694 290.9L753 188.7 M753 188.7L812 290.9 M812 290.9L753 256.8 M694 290.9L753 256.8 M753 188.7L753 256.8 M694 290.9L576 290.9 M576 290.9L635 188.7 M635 188.7L694 290.9 M576 290.9L458 290.9 M458 290.9L517 188.7 M517 188.7L576 290.9 M458 290.9L340 290.9 M340 290.9L399 188.7 M399 188.7L458 290.9 M458 290.9L399 256.8 M340 290.9L399 256.8 M399 188.7L399 256.8 M340 290.9L222 290.9 M222 290.9L281 188.7 M281 188.7L340 290.9 M222 290.9L104 290.9 M104 290.9L163 188.7 M163 188.7L222 290.9 M104 290.9L-14 290.9 M-14 290.9L45 188.7 M45 188.7L104 290.9 M104 290.9L45 256.8 M-14 290.9L45 256.8 M45 188.7L45 256.8 M-14 290.9L-132 290.9 M-132 290.9L-73 188.7 M-73 188.7L-14 290.9 M-132 290.9L-250 290.9 M-250 290.9L-191 188.7 M-191 188.7L-132 290.9 M-250 290.9L-368 290.9 M-368 290.9L-309 188.7 M-309 188.7L-250 290.9 M-250 290.9L-309 256.8 M-368 290.9L-309 256.8 M-309 188.7L-309 256.8 M1697 188.7L1579 188.7 M1579 188.7L1638 86.5 M1638 86.5L1697 188.7 M1697 188.7L1638 154.6 M1579 188.7L1638 154.6 M1638 86.5L1638 154.6 M1579 188.7L1461 188.7 M1461 188.7L1520 86.5 M1520 86.5L1579 188.7 M1461 188.7L1343 188.7 M1343 188.7L1402 86.5 M1402 86.5L1461 188.7 M1343 188.7L1225 188.7 M1225 188.7L1284 86.5 M1284 86.5L1343 188.7 M1343 188.7L1284 154.6 M1225 188.7L1284 154.6 M1284 86.5L1284 154.6 M1225 188.7L1107 188.7 M1107 188.7L1166 86.5 M1166 86.5L1225 188.7 M1107 188.7L989 188.7 M989 188.7L1048 86.5 M1048 86.5L1107 188.7 M989 188.7L871 188.7 M871 188.7L930 86.5 M930 86.5L989 188.7 M989 188.7L930 154.6 M871 188.7L930 154.6 M930 86.5L930 154.6 M871 188.7L753 188.7 M753 188.7L812 86.5 M812 86.5L871 188.7 M753 188.7L635 188.7 M635 188.7L694 86.5 M694 86.5L753 188.7 M635 188.7L517 188.7 M517 188.7L576 86.5 M576 86.5L635 188.7 M635 188.7L576 154.6 M517 188.7L576 154.6 M576 86.5L576 154.6 M517 188.7L399 188.7 M399 188.7L458 86.5 M458 86.5L517 188.7 M399 188.7L281 188.7 M281 188.7L340 86.5 M340 86.5L399 188.7 M281 188.7L163 188.7 M163 188.7L222 86.5 M222 86.5L281 188.7 M281 188.7L222 154.6 M163 188.7L222 154.6 M222 86.5L222 154.6 M163 188.7L45 188.7 M45 188.7L104 86.5 M104 86.5L163 188.7 M45 188.7L-73 188.7 M-73 188.7L-14 86.5 M-14 86.5L45 188.7 M-73 188.7L-191 188.7 M-191 188.7L-132 86.5 M-132 86.5L-73 188.7 M-73 188.7L-132 154.6 M-191 188.7L-132 154.6 M-132 86.5L-132 154.6 M-191 188.7L-309 188.7 M-309 188.7L-250 86.5 M-250 86.5L-191 188.7 M1638 86.5L1520 86.5 M1520 86.5L1579 -15.7 M1579 -15.7L1638 86.5 M1520 86.5L1402 86.5 M1402 86.5L1461 -15.7 M1461 -15.7L1520 86.5 M1402 86.5L1284 86.5 M1284 86.5L1343 -15.7 M1343 -15.7L1402 86.5 M1402 86.5L1343 52.5 M1284 86.5L1343 52.5 M1343 -15.7L1343 52.5 M1284 86.5L1166 86.5 M1166 86.5L1225 -15.7 M1225 -15.7L1284 86.5 M1166 86.5L1048 86.5 M1048 86.5L1107 -15.7 M1107 -15.7L1166 86.5 M1048 86.5L930 86.5 M930 86.5L989 -15.7 M989 -15.7L1048 86.5 M1048 86.5L989 52.5 M930 86.5L989 52.5 M989 -15.7L989 52.5 M930 86.5L812 86.5 M812 86.5L871 -15.7 M871 -15.7L930 86.5 M812 86.5L694 86.5 M694 86.5L753 -15.7 M753 -15.7L812 86.5 M694 86.5L576 86.5 M576 86.5L635 -15.7 M635 -15.7L694 86.5 M694 86.5L635 52.5 M576 86.5L635 52.5 M635 -15.7L635 52.5 M576 86.5L458 86.5 M458 86.5L517 -15.7 M517 -15.7L576 86.5 M458 86.5L340 86.5 M340 86.5L399 -15.7 M399 -15.7L458 86.5 M340 86.5L222 86.5 M222 86.5L281 -15.7 M281 -15.7L340 86.5 M340 86.5L281 52.5 M222 86.5L281 52.5 M281 -15.7L281 52.5 M222 86.5L104 86.5 M104 86.5L163 -15.7 M163 -15.7L222 86.5 M104 86.5L-14 86.5 M-14 86.5L45 -15.7 M45 -15.7L104 86.5 M-14 86.5L-132 86.5 M-132 86.5L-73 -15.7 M-73 -15.7L-14 86.5 M-14 86.5L-73 52.5 M-132 86.5L-73 52.5 M-73 -15.7L-73 52.5 M-132 86.5L-250 86.5 M-250 86.5L-191 -15.7 M-191 -15.7L-132 86.5 M-250 86.5L-368 86.5 M-368 86.5L-309 -15.7 M-309 -15.7L-250 86.5 M1697 -15.7L1579 -15.7 M1579 -15.7L1638 -117.9 M1638 -117.9L1697 -15.7 M1579 -15.7L1461 -15.7 M1461 -15.7L1520 -117.9 M1520 -117.9L1579 -15.7 M1579 -15.7L1520 -49.7 M1461 -15.7L1520 -49.7 M1520 -117.9L1520 -49.7 M1461 -15.7L1343 -15.7 M1343 -15.7L1402 -117.9 M1402 -117.9L1461 -15.7 M1343 -15.7L1225 -15.7 M1225 -15.7L1284 -117.9 M1284 -117.9L1343 -15.7 M1225 -15.7L1107 -15.7 M1107 -15.7L1166 -117.9 M1166 -117.9L1225 -15.7 M1225 -15.7L1166 -49.7 M1107 -15.7L1166 -49.7 M1166 -117.9L1166 -49.7 M1107 -15.7L989 -15.7 M989 -15.7L1048 -117.9 M1048 -117.9L1107 -15.7 M989 -15.7L871 -15.7 M871 -15.7L930 -117.9 M930 -117.9L989 -15.7 M871 -15.7L753 -15.7 M753 -15.7L812 -117.9 M812 -117.9L871 -15.7 M871 -15.7L812 -49.7 M753 -15.7L812 -49.7 M812 -117.9L812 -49.7 M753 -15.7L635 -15.7 M635 -15.7L694 -117.9 M694 -117.9L753 -15.7 M635 -15.7L517 -15.7 M517 -15.7L576 -117.9 M576 -117.9L635 -15.7 M517 -15.7L399 -15.7 M399 -15.7L458 -117.9 M458 -117.9L517 -15.7 M517 -15.7L458 -49.7 M399 -15.7L458 -49.7 M458 -117.9L458 -49.7 M399 -15.7L281 -15.7 M281 -15.7L340 -117.9 M340 -117.9L399 -15.7 M281 -15.7L163 -15.7 M163 -15.7L222 -117.9 M222 -117.9L281 -15.7 M163 -15.7L45 -15.7 M45 -15.7L104 -117.9 M104 -117.9L163 -15.7 M163 -15.7L104 -49.7 M45 -15.7L104 -49.7 M104 -117.9L104 -49.7 M45 -15.7L-73 -15.7 M-73 -15.7L-14 -117.9 M-14 -117.9L45 -15.7 M-73 -15.7L-191 -15.7 M-191 -15.7L-132 -117.9 M-132 -117.9L-73 -15.7 M-191 -15.7L-309 -15.7 M-309 -15.7L-250 -117.9 M-250 -117.9L-191 -15.7 M-191 -15.7L-250 -49.7 M-309 -15.7L-250 -49.7 M-250 -117.9L-250 -49.7"/>
</g>
<g fill="none" stroke-linecap="round" stroke-linejoin="round">
<polygon points="994.7,585.6 1344.1,788.5 1344.1,811.4 994.7,608.5" fill="#24432d" stroke="#f3ead8" stroke-width="1.9" stroke-opacity="0.75"/>
<polygon points="1693.5,585.6 1344.1,788.5 1344.1,811.4 1693.5,608.5" fill="#1b3c26" stroke="#f3ead8" stroke-width="1.9" stroke-opacity="0.55"/>
<polygon points="1344.1,382.6 1693.5,585.6 1344.1,788.5 994.7,585.6" fill="#334f39" stroke="#f3ead8" stroke-width="3.4" stroke-opacity="1.0"/>
<line x1="1255.0" y1="466.2" x2="1549.7" y2="637.3" stroke="#f3ead8" stroke-width="1.7" stroke-opacity="0.5"/>
<line x1="1138.5" y1="533.8" x2="1433.2" y2="705.0" stroke="#f3ead8" stroke-width="1.7" stroke-opacity="0.5"/>
<polygon points="652.9,687.0 1002.3,889.9 1002.3,912.8 652.9,709.9" fill="#24432d" stroke="#f3ead8" stroke-width="1.9" stroke-opacity="0.75"/>
<polygon points="1351.7,687.0 1002.3,889.9 1002.3,912.8 1351.7,709.9" fill="#1b3c26" stroke="#f3ead8" stroke-width="1.9" stroke-opacity="0.55"/>
<polygon points="1002.3,484.0 1351.7,687.0 1002.3,889.9 652.9,687.0" fill="#334f39" stroke="#f3ead8" stroke-width="3.4" stroke-opacity="1.0"/>
<line x1="913.1" y1="567.6" x2="1207.9" y2="738.8" stroke="#f3ead8" stroke-width="1.7" stroke-opacity="0.5"/>
<line x1="796.7" y1="635.3" x2="1091.4" y2="806.4" stroke="#f3ead8" stroke-width="1.7" stroke-opacity="0.5"/>
<polygon points="311.1,785.0 660.5,987.9 660.5,1014.4 311.1,811.4" fill="#aa5440" stroke="#e5604d" stroke-width="1.9" stroke-opacity="0.75"/>
<polygon points="1009.8,785.0 660.5,987.9 660.5,1014.4 1009.8,811.4" fill="#804b37" stroke="#e5604d" stroke-width="1.9" stroke-opacity="0.55"/>
<polygon points="660.5,582.0 1009.8,785.0 660.5,987.9 311.1,785.0" fill="#e5604d" stroke="#e5604d" stroke-width="3.4" stroke-opacity="1.0"/>
</g>
</svg>
