<svg width="400" height="400" viewBox="0 0 400 400" fill="none" xmlns="http://www.w3.org/2000/svg">
<path d="M288.189 32.283L255.906 64.5659L223.623 32.283L255.906 0L288.189 32.283Z" fill="#0B0469"/>
<path d="M400 144.094L367.717 176.377L335.434 144.094L367.717 111.811L400 144.094Z" fill="#0B0469"/>
<path d="M176.377 32.283L144.094 64.5659L111.811 32.283L144.094 0L176.377 32.283Z" fill="#0B0469"/>
<path d="M232.283 88.1886L200 120.472L167.717 88.1886L200 55.9057L232.283 88.1886Z" fill="#0B0469"/>
<path d="M288.189 144.094L255.906 176.377L223.623 144.094L255.906 111.811L288.189 144.094Z" fill="#0B0469"/>
<path d="M344.094 200L311.811 232.283L279.528 200L311.811 167.717L344.094 200Z" fill="#0B0469"/>
<path d="M400 255.906L367.717 288.189L335.434 255.906L367.717 223.623L400 255.906Z" fill="#0B0469"/>
<path d="M176.377 144.094L144.094 176.377L111.811 144.094L144.094 111.811L176.377 144.094Z" fill="#0B0469"/>
<path d="M232.283 200L200 232.283L167.717 200L200 167.717L232.283 200Z" fill="#0B0469"/>
<path d="M288.189 255.906L255.906 288.189L223.623 255.906L255.906 223.623L288.189 255.906Z" fill="#0B0469"/>
<path d="M64.5659 144.094L32.283 176.377L4.88101e-06 144.094L32.283 111.811L64.5659 144.094Z" fill="#0B0469"/>
<path d="M120.472 200L88.1886 232.283L55.9057 200L88.1886 167.717L120.472 200Z" fill="#0B0469"/>
<path d="M176.377 255.906L144.094 288.189L111.811 255.906L144.094 223.623L176.377 255.906Z" fill="#0B0469"/>
<path d="M232.283 311.811L200 344.094L167.717 311.811L200 279.528L232.283 311.811Z" fill="#0B0469"/>
<path d="M288.189 367.717L255.906 400L223.623 367.717L255.906 335.434L288.189 367.717Z" fill="#0B0469"/>
<path d="M64.5659 255.906L32.283 288.189L0 255.906L32.283 223.623L64.5659 255.906Z" fill="#0B0469"/>
<path d="M176.377 367.717L144.094 400L111.811 367.717L144.094 335.434L176.377 367.717Z" fill="#0B0469"/>
</svg>
